<svg xmlns="http://www.w3.org/2000/svg" fill="none" viewBox="0 0 149 100">
  <path fill="#BF0000" d="M116 50.9H74.2l3.3 3.3L116 51ZM78 37.4v.5c-.7-.5-1.4-.8-2.4-.8-3 0-5.1 2.7-5.1 6s2.2 6 5.1 6a4 4 0 0 0 2.4-.9v.6h2.6V37.4H78Zm-2.4 8.9c-1.4 0-2.5-1.4-2.5-3.2 0-1.8 1-3.3 2.5-3.3s2.5 1.5 2.5 3.3c0 1.8-1 3.2-2.5 3.2Zm23-9v6.8c0 1.2-.8 2.3-2 2.3-1.3 0-2.1-1-2.1-2.3v-6.7h-2.6V44c0 2.7 1.9 5 4.6 5 1.3 0 2.2-.8 2.2-.8v.5h2.6V37.4h-2.6Zm24 11.5V42c0-1.3 1-2.4 2.2-2.4 1.3 0 2.1 1.1 2.1 2.4v6.7h2.6V42c0-2.8-1.9-5-4.6-5-1.3 0-2.2.7-2.2.7v-.4H120v11.4h2.6Z"/>
  <path fill="#BF0000" d="M63 48.8v-4.5h2l3.2 4.5h3.4l-4-5.4a5 5 0 0 0-2.8-8.9h-4.5v14.3H63Zm0-11.6h1.8a2.2 2.2 0 0 1 0 4.4H63v-4.4Zm45.2 8.9-.9.2c-.4 0-1.2-.3-1.2-1.4v-4.8h2.2v-2.7h-2.2v-2.9h-2.5v2.9h-1.4V40h1.4v5c0 2.5 1.9 4 3.8 4a5 5 0 0 0 2.5-.7l-1.7-2.2ZM87 42.7l4.4-5.3h-3.6l-3 4v-7.8H82v15.2h2.6V44l3.8 4.7h3.7l-5.1-6Z"/>
  <path fill="#BF0000" d="M114.2 37c-3 0-5.2 2.7-5.2 6 0 3.6 2.7 6 5.4 6 1.4 0 3.1-.4 4.6-2.5l-2.3-1.3c-1.8 2.6-4.7 1.3-5-1.3h7.4c.6-4.1-2-6.8-5-6.8Zm2.2 4.6h-4.6c.5-2.7 4.1-2.8 4.6 0Z"/>
  <path fill="#1D428A" d="M53.3 44a3.5 3.5 0 1 0-7-.1 3.5 3.5 0 0 0 7 0Z"/>
  <path fill="#fff" d="M35 18.3H23.5a5.2 5.2 0 0 0-5.1 5.2v39.6c0 2.8 2.3 5.1 5.1 5.1h11.7c2.8 0 5.1-2.3 5.1-5.1V23.5c0-2.8-2.3-5.2-5.1-5.2Z"/>
  <path fill="#C8102E" d="M32.2 27.5v.2l1 .6c.9.6 2 1.6 1.9 5.3l.6 2.9c.5 1 .8 1.6 1 2.5 0 0 .1 1.5.3 1.6 1 .2.7.3.8.5.2.2.8.2.8.7l.4.8v-19a4 4 0 0 0-4-4h-3.7c.6.2 1 .4 1.2.8.5 0 1 1.2.1 2.8.4.3.1.6-.2 1.1 0 .2-.1.4-.4.4-.3.7-.8 1.4-1 1.5-.2 0-.2.4 0 .5.4.2 1 .5 1.2.8ZM39 45.2a3.5 3.5 0 0 1-6.8-1.3c0-1.7 1.2-3 2.7-3.4l-1.5-3.2-1-4.6-1.4 1a52 52 0 0 0-1.2 3.3s.5.1.8 1l1.1 4-.2.3c1.1 3.7.7 5.3 1.2 6.4.6 1.6.8 1.4 1.3 2.7.4.9.8 4.6 1 4.8.6.7 1 1.3 1 1.8 0 .4-.6 1.7-.4 2.4.1.4.2 1.4.4 1.6 0 0 .2.4 0 .5v.2c.3 1.2 1.4 3.2-.3 4.3a4 4 0 0 0 3.3-4V45.3Z"/>
  <path fill="#1D428A" d="M34.6 62.3c-.6-.6-.2-.8-.2-1-.5-1.8-1.8-2.8-1.1-3.4l-.5-1.3c-2.2-1.2-4-3.2-4.3-3.5-.4-.4-1-.8-1.1-1.1-.5-.5-3-4-3.6-5.4l-1-.1c-.5-2-2-3.5-2.1-5.4 0-.8.3-2.3.4-2.6l.8-.8v-.5c-2.3 0-1.6-.2-2-1-.3-.7 0-.8 0-1.2.3-1.3 1.3-3.1 1.7-4l.6-1.5c1.6-3.4 2.2-3.1 4.2-3.3l.1-.2c2 0 1.7-.2 2-2.1-.3.1-.4-.6-.4-.6-.2-1 .3-.9.5-.9 0-1.8.2-2.3 1.5-2.8h-6.7a4 4 0 0 0-3.9 4V63a4 4 0 0 0 4 3.9H35c-1.3-.7-.6-2.1-.5-4.7Z"/>
  <path fill="#fff" d="M25.6 64.5v-7.1H27c.8 0 1.3.4 1.3 1.4v1c0 .7-.2 1-.4 1.2.2.2.4.5.4 1v1c0 1-.5 1.5-1.3 1.5h-1.4Zm1-3v2.1h.4c.3 0 .4-.2.4-.5v-1.2c0-.4-.1-.5-.4-.5h-.4Zm0-3.2v2.3h.4c.3 0 .4 0 .4-.5v-1.4c0-.3-.1-.4-.4-.4h-.4Zm4 4.8h-.9l-.1 1.4h-1l.9-7.1h1.4l.8 7.1h-1l-.1-1.4Zm-.5-5-.2 3-.1 1.1h.7l-.1-1.2-.3-2.8Zm-7.3 6.4H22v-7.1h1.3l1 5.8-.1-4.5v-1.3h.8v7.1h-1.2l-1-5.7v5.7Z"/>
  <path fill="#1D428A" d="M26 77.4c0 .6 0 1.2-.3 1.6a2.5 2.5 0 0 1-2.4 1.5c-.5 0-1-.1-1.4-.3-.4-.3-.7-.6-1-1.1-.2-.5-.3-1-.3-1.6v-.3c0-.7 0-1.2.3-1.7a2 2 0 0 1 1-1c.4-.3.9-.5 1.4-.5.6 0 1 .2 1.4.4.5.3.8.6 1 1.1.3.5.4 1 .4 1.6v.3Zm-1.5-.3c0-.6 0-1-.3-1.4a1 1 0 0 0-.9-.5c-.7 0-1.1.6-1.2 1.7v.5c0 .6.1 1.1.3 1.4.2.4.5.5 1 .5.3 0 .6-.1.8-.5.2-.3.3-.8.3-1.4v-.3Zm2.6 3.3v-3.6h-.7v-1h.7v-.4c0-.6.2-1 .5-1.3.3-.3.7-.4 1.3-.4h.7v1.1h-.4c-.4 0-.6.2-.6.6v.3H30v-.1c0-.6.2-1.1.6-1.5.3-.3.9-.4 1.6-.4.4 0 .9 0 1.5.2l-.2 1.2h-.3c-.3-.2-.6-.2-1-.2-.5 0-.8.2-.8.8h1v1h-1v3.7H30v-3.6h-1.5v3.6H27Zm7.4 0H33v-4.7h1.5v4.7Zm2.8-1c.2 0 .4 0 .5-.2l.2-.4h1.3c0 .5-.1.9-.5 1.2a2 2 0 0 1-1.4.5 2 2 0 0 1-1.6-.6c-.4-.4-.6-1-.6-1.8 0-.5 0-1 .2-1.3.2-.4.5-.7.8-.9l1.2-.2c.6 0 1 .1 1.4.5.4.3.5.8.5 1.3H38c0-.2 0-.4-.2-.5a.6.6 0 0 0-.5-.2c-.4 0-.6.2-.6.7v1.6l.6.3Zm2.6-4.9c0-.2.1-.3.3-.5l.6-.2c.2 0 .4 0 .5.2.2.2.3.3.3.5s-.1.4-.3.5c-.1.2-.3.2-.5.2-.3 0-.5 0-.6-.2a.7.7 0 0 1-.3-.5Zm1.6 6H40v-4.8h1.5v4.7Zm3.5 0V80c-.3.4-.7.5-1.1.5-.5 0-.9-.1-1.2-.4-.3-.2-.4-.6-.4-1 0-.5.2-.9.5-1.1.4-.3 1-.4 1.7-.4h.4v-.3c0-.4-.2-.6-.5-.6-.4 0-.6.1-.6.5h-1.4c0-.5.2-.8.6-1.1.4-.3.8-.4 1.4-.4.6 0 1.1.1 1.5.4.3.3.5.7.5 1.2v2c0 .5 0 .8.2 1v.1H45Zm-.9-1 .5-.1.2-.3v-.8h-.4c-.5 0-.8.3-.8.7 0 .2 0 .3.2.4h.3Zm4.5 1h-1.4v-6.7h1.4v6.6Zm4.7-2.2v2.1h-1.5v-6.3h2.5c.5 0 1 .1 1.3.3a2 2 0 0 1 1.2 1.9c0 .6-.3 1-.7 1.4-.4.4-1 .6-1.8.6h-1Zm0-1.2h1c.3 0 .5 0 .7-.2l.2-.6c0-.3 0-.6-.2-.7a.8.8 0 0 0-.7-.3h-1V77Zm6.8 3.3L60 80c-.3.4-.7.5-1.2.5-.4 0-.8-.1-1-.4-.4-.2-.6-.6-.6-1 0-.5.2-.9.6-1.1.4-.3 1-.4 1.6-.4h.5v-.3c0-.4-.2-.6-.6-.6-.3 0-.5.1-.5.5h-1.4c0-.5.2-.8.5-1.1.4-.3 1-.4 1.5-.4.6 0 1 .1 1.4.4.4.3.5.7.6 1.2v2c0 .5 0 .8.2 1v.1H60Zm-1-1h.5l.3-.3v-.8h-.4c-.5 0-.8.3-.8.7l.1.4h.4Zm5.9-2.3h-.5c-.4 0-.7 0-.9.4v3h-1.4v-4.8h1.3v.6c.3-.4.7-.6 1.1-.6h.4v1.4Zm2.4-2.5v1.1h.8v1h-.8V79l.1.4h.8v1.1l-.9.1c-.5 0-.8-.1-1-.3-.3-.3-.4-.6-.4-1.1v-2.3h-.6v-1h.6v-1.2h1.4Zm2.7 1.1v.6c.4-.4.8-.6 1.4-.6.5 0 .9.1 1.1.4.2.3.4.7.4 1.3v3h-1.5v-3l-.1-.5-.6-.1c-.2 0-.5 0-.6.3v3.3h-1.4v-4.7H70Zm6 4.8c-.8 0-1.4-.2-1.8-.6-.4-.5-.7-1-.7-1.7v-.1c0-.5.1-1 .3-1.3.2-.4.4-.6.8-.8.3-.2.7-.3 1.2-.3a2 2 0 0 1 1.5.6c.4.4.6 1 .6 1.7v.5h-2.9c0 .3.2.5.4.7l.6.2c.5 0 .9-.2 1.1-.5l.7.8c-.2.2-.4.5-.8.6l-1 .2Zm-.2-3.7c-.4 0-.7.3-.8.8h1.5c0-.3 0-.5-.2-.6-.1-.2-.3-.2-.5-.2Zm5.5.3H81c-.5 0-.8 0-1 .4v3h-1.4v-4.8H80v.6c.3-.4.6-.6 1-.6h.5v1.4Zm2.6 1c0-.5 0-1 .3-1.3.1-.4.4-.7.7-.9l1.2-.2c.7 0 1.3.2 1.7.6.4.4.6 1 .6 1.8s-.2 1.3-.6 1.8c-.4.4-1 .6-1.7.6-.6 0-1.2-.2-1.6-.6-.4-.4-.6-1-.6-1.6V78Zm1.4 0 .2 1 .6.3c.6 0 .8-.4.8-1.2V78c0-.8-.2-1.2-.8-1.2-.4 0-.7.3-.8 1v.3Zm4 2.3v-3.6h-.6v-1h.7v-.4c0-.6.1-1 .4-1.3.4-.3.8-.4 1.4-.4h.6v1.1h-.3c-.4 0-.7.2-.7.6v.3h1v1h-1v3.7h-1.4Zm6.9-5.8v1.1h.7v1h-.7v2.6h.8v1.1l-.8.1c-.5 0-.9-.1-1.1-.3-.3-.3-.4-.6-.4-1.1v-2.3h-.6v-1h.6v-1.2h1.5Zm2.7 1.6c.3-.3.7-.5 1.2-.5s1 .1 1.2.4c.3.3.4.8.4 1.4v3h-1.5v-3l-.1-.5c-.1-.2-.3-.2-.5-.2-.3 0-.5 0-.7.3v3.3h-1.4v-6.6H99v2.4Zm5.9 4.3c-.7 0-1.3-.2-1.8-.6-.4-.5-.6-1-.6-1.7v-.1c0-.5 0-1 .2-1.3.2-.4.5-.6.8-.8.3-.2.8-.3 1.2-.3a2 2 0 0 1 1.6.6c.4.4.5 1 .5 1.7v.5H104l.4.7.7.2c.4 0 .8-.2 1-.5l.7.8c-.2.2-.4.5-.7.6l-1.1.2Zm-.2-3.7c-.4 0-.7.3-.8.8h1.5c0-.3 0-.5-.2-.6 0-.2-.3-.2-.5-.2Zm10.3 3.6h-1.5l-2.3-3.9v4h-1.5V74h1.5l2.3 4v-4h1.5v6.3Zm1 0v-6.3h2.2a3 3 0 0 1 1.8.5c.5.3.7.7.7 1.3l-.2.8-.7.5.8.5.2.9c0 .6-.2 1-.6 1.4-.4.3-1 .4-1.7.4h-2.6Zm1.5-3.6h.7l.8-.2.2-.6c0-.2-.1-.4-.3-.5-.1-.2-.4-.2-.7-.2h-.7v1.5Zm0 1v1.5h1l.6-.2.2-.6c0-.5-.3-.7-.8-.8h-1Zm7.7 1.5h-2l-.4 1.1h-1.6l2.3-6.3h1.4l2.3 6.3h-1.6l-.4-1.1Zm-1.7-1.2h1.4l-.7-2.2-.7 2.2Z"/>
</svg>
